<svg xmlns="http://www.w3.org/2000/svg" xmlns:xlink="http://www.w3.org/1999/xlink" width="512" height="512" viewBox="0 0 512 512">
  <defs>
    <linearGradient id="linear-gradient" x1="0.5" x2="0.5" y2="1" gradientUnits="objectBoundingBox">
      <stop offset="0" stop-color="#1cb1b4"/>
      <stop offset="1" stop-color="#fff" stop-opacity="0.102"/>
    </linearGradient>
    <linearGradient id="linear-gradient-2" x1="0.5" x2="0.478" y2="1.591" gradientUnits="objectBoundingBox">
      <stop offset="0" stop-color="#1cb1b4"/>
      <stop offset="1" stop-color="#fff" stop-opacity="0.239"/>
    </linearGradient>
    <clipPath id="clip-React_Template_Logo">
      <rect width="512" height="512"/>
    </clipPath>
  </defs>
  <g id="React_Template_Logo" data-name="React Template Logo" clip-path="url(#clip-React_Template_Logo)">
    <g id="Floki" transform="translate(-326 -260)">
      <g id="React_Floki" data-name="React Floki" transform="translate(462.881 706.711)">
        <g id="Rectangle_8" data-name="Rectangle 8" transform="translate(173.119 1.289)" fill="none" stroke="#aadddf" stroke-width="3.3">
          <rect width="14" height="20" stroke="none"/>
          <rect x="1.65" y="1.65" width="10.7" height="16.7" fill="none"/>
        </g>
        <path id="Path_69" data-name="Path 69" d="M2.072,0V-19.88h8.792a5.642,5.642,0,0,1,2.534.574,6.555,6.555,0,0,1,2,1.512,7.135,7.135,0,0,1,1.316,2.128,6.4,6.4,0,0,1,.476,2.394,6.611,6.611,0,0,1-.966,3.514,5.545,5.545,0,0,1-2.618,2.282L18.144,0H13.8L9.744-6.664H5.936V0ZM5.936-10.052H10.78a2.043,2.043,0,0,0,.994-.252,2.542,2.542,0,0,0,.8-.686,3.42,3.42,0,0,0,.532-1.022,3.96,3.96,0,0,0,.2-1.26,3.59,3.59,0,0,0-.224-1.288,3.361,3.361,0,0,0-.6-1.022,2.723,2.723,0,0,0-.868-.672,2.254,2.254,0,0,0-.994-.238H5.936ZM34.5-3.388V0h-13.8V-19.88H34.244v3.388H24.556V-11.7h8.372v3.136H24.556v5.18Zm8.68-16.492h3.416L54.152,0H50.176L48.328-4.956H41.384L39.564,0H35.588ZM47.628-7.672l-2.744-7.812L42.028-7.672ZM54.4-10.08a10.3,10.3,0,0,1,.658-3.6,9.782,9.782,0,0,1,1.918-3.178,9.712,9.712,0,0,1,3.08-2.268,9.513,9.513,0,0,1,4.144-.868,9.035,9.035,0,0,1,4.746,1.2,7.69,7.69,0,0,1,2.982,3.136l-2.968,2.044a5.075,5.075,0,0,0-.952-1.414,4.762,4.762,0,0,0-1.2-.91,5.4,5.4,0,0,0-1.344-.49,6.374,6.374,0,0,0-1.372-.154,5.212,5.212,0,0,0-2.534.588,5.575,5.575,0,0,0-1.792,1.526,6.729,6.729,0,0,0-1.078,2.128,8.055,8.055,0,0,0-.364,2.366,7.719,7.719,0,0,0,.42,2.534,6.744,6.744,0,0,0,1.19,2.142,5.952,5.952,0,0,0,1.848,1.484,5.055,5.055,0,0,0,2.366.56,6.224,6.224,0,0,0,1.4-.168,5.322,5.322,0,0,0,1.386-.532,5.251,5.251,0,0,0,1.218-.938,4.329,4.329,0,0,0,.9-1.386l3.164,1.82a5.976,5.976,0,0,1-1.358,1.974,8.738,8.738,0,0,1-1.988,1.442,10.154,10.154,0,0,1-2.366.9,10.356,10.356,0,0,1-2.464.308,8.469,8.469,0,0,1-3.892-.9,10.135,10.135,0,0,1-3.038-2.338,10.849,10.849,0,0,1-1.988-3.276A10.224,10.224,0,0,1,54.4-10.08Zm35.084-6.412H83.132V0H79.3V-16.492H72.94V-19.88H89.488Zm22.484,0h-6.356V0H101.78V-16.492H95.424V-19.88h16.548Zm16.268,13.1V0h-13.8V-19.88h13.552v3.388H118.3V-11.7h8.372v3.136H118.3v5.18ZM147.476,0V-13.16l-5.124,9.8h-2.1l-5.124-9.8V0h-3.864V-19.88h4.144l5.88,11.312,5.936-11.312h4.116V0Zm8.008,0V-19.88h8.428a5.642,5.642,0,0,1,2.534.574,6.555,6.555,0,0,1,2,1.512,7.135,7.135,0,0,1,1.316,2.128,6.4,6.4,0,0,1,.476,2.394,6.9,6.9,0,0,1-.448,2.45,6.8,6.8,0,0,1-1.26,2.114,6.19,6.19,0,0,1-1.96,1.484,5.67,5.67,0,0,1-2.52.56h-4.7V0Zm3.864-10.052h4.48a2.213,2.213,0,0,0,1.778-.868,3.592,3.592,0,0,0,.714-2.352,3.873,3.873,0,0,0-.224-1.358,3.3,3.3,0,0,0-.588-1.022,2.34,2.34,0,0,0-.854-.63,2.5,2.5,0,0,0-.994-.21h-4.312ZM172.928,0V-19.88h3.864V-3.388h10.136V0Zm24.157-19.88H200.5L208.061,0h-3.976l-1.848-4.956h-6.944L193.473,0H189.5Zm4.452,12.208-2.744-7.812-2.856,7.812ZM222-16.492h-6.356V0h-3.836V-16.492h-6.356V-19.88H222Zm16.268,13.1V0h-13.8V-19.88H238.02v3.388h-9.688V-11.7H236.7v3.136h-8.372v5.18Z" transform="translate(0.119 21.289)" fill="#1cb1b4"/>
      </g>
      <g id="Logo" transform="translate(389 303)">
        <g id="Rings">
          <g id="Ellipse_2" data-name="Ellipse 2" transform="translate(385.775 126.652) rotate(90)" fill="none" stroke="#1cb1b4" stroke-width="5">
            <ellipse cx="81.216" cy="192.888" rx="81.216" ry="192.888" stroke="none"/>
            <ellipse cx="81.216" cy="192.888" rx="78.716" ry="190.388" fill="none"/>
          </g>
          <g id="Ellipse_3" data-name="Ellipse 3" transform="translate(219.494 0) rotate(30)" fill="none" stroke="#aadddf" stroke-width="5">
            <ellipse cx="80.875" cy="193.022" rx="80.875" ry="193.022" stroke="none"/>
            <ellipse cx="80.875" cy="193.022" rx="78.375" ry="190.522" fill="none"/>
          </g>
          <g id="Ellipse_4" data-name="Ellipse 4" transform="translate(359.574 334.325) rotate(150)" fill="none" stroke="#6fc8ca" stroke-width="5">
            <ellipse cx="80.875" cy="193.022" rx="80.875" ry="193.022" stroke="none"/>
            <ellipse cx="80.875" cy="193.022" rx="78.375" ry="190.522" fill="none"/>
          </g>
        </g>
        <g id="Axe" transform="translate(160.616 24.654)">
          <path id="Path_11" data-name="Path 11" d="M5,0H32a5,5,0,0,1,5,5V292.885h0s-19.446,20.641-20,20.641h0L-3,292.885h0L0,5A5,5,0,0,1,5,0Z" transform="translate(15.384 0.346)" fill="#1cb1b4"/>
          <path id="Union_2" data-name="Union 2" d="M122.318,91.571S112.95,72.956,99.9,64.037c-9.219-6.3-20.275-7.762-25.971-8.077a58.835,58.835,0,0,0-12,1.825,83.008,83.008,0,0,0-14.476,5.8s-3.026,1.764-7.882,5.173-11.543,8.465-11.543,8.465-7.7.481-8.8-3.136c-1.8-5.972-.524-19.5,5.13-31.036,3.451-7.042,9.305-14,15.209-19.751A84.3,84.3,0,0,1,69.08,5.117a83.271,83.271,0,0,1,26.25-4.7h0L196.385,1.3a15.187,15.187,0,0,1,7.477,3.844C205.135,3.02,210,.616,211.818.616l39.086.512a3.976,3.976,0,0,1,3.8,4.13L257.418,63.9c0,2.282-2.324,4.119-4.423,4.119l-47.7.011c-1.911,0-7.653-4.729-8.667-7.3-.158.675-.245,1.04-.245,1.04s-20.636-2.011-24.575,5.438-11.717,24.359-11.717,24.359Z" transform="translate(-107.438 -17.225)" fill="#1cb1b4"/>
        </g>
        <g id="Detail" transform="translate(160.849 24.654)">
          <path id="Path_12" data-name="Path 12" d="M4.952,0H31.8a4.986,4.986,0,0,1,4.971,5l-.031,287.779c0,2.761-17.034,19.895-19.779,19.895h0c-2.745,0-20.189-18.893-20.189-21.655L-.019,5A4.986,4.986,0,0,1,4.952,0Z" transform="translate(15.384 0.346)" fill="url(#linear-gradient)"/>
          <path id="Union_3" data-name="Union 3" d="M122.318,91.571S112.95,72.956,99.9,64.037c-9.219-6.3-20.275-7.762-25.971-8.077a58.835,58.835,0,0,0-12,1.825,83.008,83.008,0,0,0-14.476,5.8s-3.026,1.764-7.882,5.173-11.543,8.465-11.543,8.465-7.7.481-8.8-3.136c-1.8-5.972-.524-19.5,5.13-31.036,3.451-7.042,9.305-14,15.209-19.751A84.3,84.3,0,0,1,69.08,5.117a83.271,83.271,0,0,1,26.25-4.7h0L196.385,1.3a15.187,15.187,0,0,1,7.477,3.844C205.135,3.02,210,.616,211.818.616l39.086.512a3.976,3.976,0,0,1,3.8,4.13L257.418,63.9c0,2.282-2.324,4.119-4.423,4.119l-47.7.011c-1.911,0-7.653-4.729-8.667-7.3-.158.675-.245,1.04-.245,1.04s-20.636-2.011-24.575,5.438-11.717,24.359-11.717,24.359Z" transform="translate(-107.672 -17.225)" fill="url(#linear-gradient-2)"/>
        </g>
      </g>
    </g>
  </g>
</svg>
