<svg xmlns="http://www.w3.org/2000/svg" xmlns:xlink="http://www.w3.org/1999/xlink" width="512" height="512" viewBox="0 0 512 512">
  <defs>
    <linearGradient id="linear-gradient" x1="0.5" x2="0.5" y2="1" gradientUnits="objectBoundingBox">
      <stop offset="0" stop-color="#1cb1b4"/>
      <stop offset="1" stop-color="#fff" stop-opacity="0.102"/>
    </linearGradient>
    <linearGradient id="linear-gradient-2" x1="0.5" x2="0.478" y2="1.591" gradientUnits="objectBoundingBox">
      <stop offset="0" stop-color="#1cb1b4"/>
      <stop offset="1" stop-color="#fff" stop-opacity="0.239"/>
    </linearGradient>
    <clipPath id="clip-React_Template_Logo_1">
      <rect width="512" height="512"/>
    </clipPath>
  </defs>
  <g id="React_Template_Logo_1" data-name="React Template Logo – 1" clip-path="url(#clip-React_Template_Logo_1)">
    <g id="Floki" transform="translate(-326 -260)">
      <g id="Logo" transform="translate(389 303)">
        <g id="Rings">
          <g id="Ellipse_2" data-name="Ellipse 2" transform="translate(385.775 126.652) rotate(90)" fill="none" stroke="#1cb1b4" stroke-width="5">
            <ellipse cx="81.216" cy="192.888" rx="81.216" ry="192.888" stroke="none"/>
            <ellipse cx="81.216" cy="192.888" rx="78.716" ry="190.388" fill="none"/>
          </g>
          <g id="Ellipse_3" data-name="Ellipse 3" transform="translate(219.494 0) rotate(30)" fill="none" stroke="#aadddf" stroke-width="5">
            <ellipse cx="80.875" cy="193.022" rx="80.875" ry="193.022" stroke="none"/>
            <ellipse cx="80.875" cy="193.022" rx="78.375" ry="190.522" fill="none"/>
          </g>
          <g id="Ellipse_4" data-name="Ellipse 4" transform="translate(359.574 334.325) rotate(150)" fill="none" stroke="#6fc8ca" stroke-width="5">
            <ellipse cx="80.875" cy="193.022" rx="80.875" ry="193.022" stroke="none"/>
            <ellipse cx="80.875" cy="193.022" rx="78.375" ry="190.522" fill="none"/>
          </g>
        </g>
        <g id="Axe" transform="translate(160.616 24.654)">
          <path id="Path_11" data-name="Path 11" d="M5,0H32a5,5,0,0,1,5,5V292.885h0s-19.446,20.641-20,20.641h0L-3,292.885h0L0,5A5,5,0,0,1,5,0Z" transform="translate(15.384 0.346)" fill="#1cb1b4"/>
          <path id="Union_2" data-name="Union 2" d="M122.318,91.571S112.95,72.956,99.9,64.037c-9.219-6.3-20.275-7.762-25.971-8.077a58.835,58.835,0,0,0-12,1.825,83.008,83.008,0,0,0-14.476,5.8s-3.026,1.764-7.882,5.173-11.543,8.465-11.543,8.465-7.7.481-8.8-3.136c-1.8-5.972-.524-19.5,5.13-31.036,3.451-7.042,9.305-14,15.209-19.751A84.3,84.3,0,0,1,69.08,5.117a83.271,83.271,0,0,1,26.25-4.7h0L196.385,1.3a15.187,15.187,0,0,1,7.477,3.844C205.135,3.02,210,.616,211.818.616l39.086.512a3.976,3.976,0,0,1,3.8,4.13L257.418,63.9c0,2.282-2.324,4.119-4.423,4.119l-47.7.011c-1.911,0-7.653-4.729-8.667-7.3-.158.675-.245,1.04-.245,1.04s-20.636-2.011-24.575,5.438-11.717,24.359-11.717,24.359Z" transform="translate(-107.438 -17.225)" fill="#1cb1b4"/>
        </g>
        <g id="Detail" transform="translate(160.849 24.654)">
          <path id="Path_12" data-name="Path 12" d="M4.952,0H31.8a4.986,4.986,0,0,1,4.971,5l-.031,287.779c0,2.761-17.034,19.895-19.779,19.895h0c-2.745,0-20.189-18.893-20.189-21.655L-.019,5A4.986,4.986,0,0,1,4.952,0Z" transform="translate(15.384 0.346)" fill="url(#linear-gradient)"/>
          <path id="Union_3" data-name="Union 3" d="M122.318,91.571S112.95,72.956,99.9,64.037c-9.219-6.3-20.275-7.762-25.971-8.077a58.835,58.835,0,0,0-12,1.825,83.008,83.008,0,0,0-14.476,5.8s-3.026,1.764-7.882,5.173-11.543,8.465-11.543,8.465-7.7.481-8.8-3.136c-1.8-5.972-.524-19.5,5.13-31.036,3.451-7.042,9.305-14,15.209-19.751A84.3,84.3,0,0,1,69.08,5.117a83.271,83.271,0,0,1,26.25-4.7h0L196.385,1.3a15.187,15.187,0,0,1,7.477,3.844C205.135,3.02,210,.616,211.818.616l39.086.512a3.976,3.976,0,0,1,3.8,4.13L257.418,63.9c0,2.282-2.324,4.119-4.423,4.119l-47.7.011c-1.911,0-7.653-4.729-8.667-7.3-.158.675-.245,1.04-.245,1.04s-20.636-2.011-24.575,5.438-11.717,24.359-11.717,24.359Z" transform="translate(-107.672 -17.225)" fill="url(#linear-gradient-2)"/>
        </g>
      </g>
      <text id="REACT_TEMP_ATE" data-name="REACT TEMP   ATE" transform="translate(463 728)" fill="#1cb1b4" font-size="28" font-family="Raleway-Bold, Raleway" font-weight="700"><tspan x="0" y="0" xml:space="preserve">REACT TEMP   ATE</tspan></text>
    </g>
    <g id="Group_37" data-name="Group 37" transform="translate(1)">
      <line id="Line_2" data-name="Line 2" y2="23" transform="translate(311.5 448.5)" fill="none" stroke="#1cb1b4" stroke-width="4"/>
      <line id="Line_3" data-name="Line 3" x2="16" transform="translate(306.5 466.5)" fill="none" stroke="#1cb1b4" stroke-width="4"/>
    </g>
  </g>
</svg>
