<svg xmlns="http://www.w3.org/2000/svg" width="472" height="364" fill="none" viewBox="0 0 472 364">
    <g clip-path="url(#clip0)">
        <g clip-path="url(#clip1)">
            <rect width="474" height="364" fill="#DAFCFD" rx="8"/>
            <path stroke="#1CB1B4" stroke-width="2" d="M196.563-204.35c-97.113-30.73-151.56 23.224-171.682 84.611C4.759-58.352 31.098 25.367 15.72 84.206c-15.378 58.84-73.846 87.717-73.846 87.717" opacity=".06"/>
            <path stroke="#1CB1B4" stroke-width="2" d="M209.36-87.192C112.247-117.92 57.8-63.968 37.678-2.58c-20.122 61.388 6.217 145.106-9.16 203.946-15.378 58.839-73.846 87.716-73.846 87.716" opacity=".06"/>
            <path stroke="#1CB1B4" stroke-width="2" d="M183.413-102.658C84.228-88.751 45.674-13.65 41.357 53.295 37.039 120.24 82 187.745 81.559 250.182c-.442 62.436-48.806 115.606-48.806 115.606M710.594-156.869c-148.856-47.102-232.313 35.598-263.156 129.693-30.843 94.095 9.53 222.42-14.041 312.609-23.571 90.19-113.191 134.452-113.191 134.452" opacity=".06"/>
            <path stroke="#1CB1B4" stroke-width="2" d="M630.563 41.307c-97.113-30.73-151.56 23.224-171.682 84.611-20.122 61.387 6.217 145.106-9.161 203.945-15.377 58.84-73.845 87.717-73.845 87.717" opacity=".06"/>
        </g>
        <path stroke="#1CB1B4" stroke-width="4" d="M310.291 250v31M303.551 274.261h21.565"/>
        <path fill="#1CB1B4" d="M76 276.957v-26.795h11.85c1.183-.012 2.353.253 3.416.773 1.02.5 1.936 1.192 2.695 2.038.756.844 1.356 1.815 1.774 2.869.419 1.024.637 2.119.641 3.226.019 1.67-.432 3.311-1.302 4.736-.816 1.377-2.053 2.455-3.528 3.076l6.116 10.077h-5.855l-5.466-8.982h-5.133v8.982H76zm5.208-13.549h6.529c.468.003.93-.114 1.34-.339.42-.23.787-.545 1.078-.925.315-.415.558-.881.717-1.378.181-.547.272-1.121.27-1.698.006-.592-.096-1.18-.302-1.736-.186-.503-.46-.97-.81-1.377-.324-.378-.722-.687-1.169-.906-.416-.208-.874-.318-1.34-.321h-6.313v8.68zm38.499 8.982v4.567h-18.6v-26.795h18.255v4.566h-13.057v6.459h11.284v4.227h-11.284v6.982l13.402-.006zm11.699-22.228h4.605l10.184 26.795h-5.359l-2.491-6.68h-9.359l-2.453 6.68h-5.359l10.232-26.795zm5.996 16.454l-3.699-10.529-3.849 10.529h7.548zm9.127-3.246c.004-1.657.304-3.3.887-4.852.58-1.579 1.458-3.033 2.585-4.283 1.168-1.284 2.579-2.323 4.151-3.057 1.751-.805 3.66-1.204 5.586-1.17 2.24-.06 4.454.5 6.397 1.618 1.716.995 3.111 2.462 4.019 4.226l-4.001 2.755c-.317-.703-.751-1.347-1.283-1.906-.47-.492-1.016-.906-1.617-1.226-.572-.3-1.181-.522-1.812-.661-.607-.135-1.227-.205-1.849-.207-1.187-.029-2.362.244-3.415.792-.943.506-1.766 1.208-2.416 2.057-.651.862-1.143 1.833-1.452 2.868-.322 1.033-.487 2.108-.491 3.189-.003 1.162.188 2.317.566 3.416.354 1.052.897 2.03 1.604 2.887.688.827 1.535 1.507 2.491 2 .985.507 2.08.766 3.189.755.635-.004 1.268-.08 1.887-.227.653-.15 1.282-.392 1.868-.717.606-.338 1.159-.764 1.641-1.264.521-.539.933-1.173 1.213-1.868l4.265 2.453c-.424 1.001-1.047 1.906-1.83 2.661-.798.77-1.7 1.425-2.68 1.943-1.008.536-2.079.943-3.189 1.213-1.086.271-2.201.411-3.321.415-1.82.02-3.619-.396-5.246-1.213-1.553-.78-2.942-1.85-4.094-3.151-1.148-1.301-2.056-2.796-2.68-4.415-.636-1.602-.966-3.308-.973-5.031zm47.287-8.642h-8.561v22.229h-5.165v-22.229h-8.572v-4.566h22.304l-.006 4.566zm30.305 0h-8.567v22.229h-5.165v-22.229h-8.567v-4.566h22.304l-.005 4.566zm21.926 17.657v4.572h-18.6v-26.795h18.266v4.566h-13.058v6.459h11.284v4.227h-11.284v6.982l13.392-.011zm25.932 4.572v-17.738l-6.906 13.209h-2.83l-6.907-13.209v17.738h-5.208v-26.795h5.586l7.925 15.246 8.001-15.246h5.547v26.795h-5.208zm10.794 0v-26.795h11.359c1.183-.012 2.353.253 3.416.773 1.021.5 1.936 1.192 2.695 2.038.756.844 1.356 1.815 1.774 2.869.419 1.024.637 2.119.642 3.226 0 1.128-.204 2.247-.604 3.302-.388 1.046-.964 2.011-1.699 2.85-.738.836-1.636 1.516-2.641 2-1.059.509-2.222.768-3.397.755h-6.335v8.982h-5.21zm5.208-13.549h6.038c.463.005.92-.099 1.336-.302.416-.203.779-.5 1.06-.868.684-.91 1.025-2.033.963-3.17.009-.623-.093-1.243-.302-1.83-.18-.503-.448-.97-.793-1.378-.313-.367-.707-.658-1.151-.849-.422-.185-.878-.281-1.339-.283h-5.812v8.68zm50.91-13.246h4.604l10.195 26.795h-5.364l-2.491-6.68h-9.36l-2.453 6.68h-5.359l10.228-26.795zm6 16.454l-3.698-10.529-3.85 10.529h7.548zm29.135-11.888h-8.567v22.229h-5.165v-22.229h-8.572v-4.566h22.304v4.566zm21.926 17.657v4.572h-18.6v-26.795h18.255v4.566H382.55v6.459h11.284v4.227H382.55v6.982l13.402-.011z"/>
        <path stroke="#1CB1B4" stroke-width="5" d="M163.947 160.701c0 16.46 32.272 29.803 72.083 29.803 39.81 0 72.083-13.343 72.083-29.803 0-16.459-32.273-29.802-72.083-29.802-39.811 0-72.083 13.343-72.083 29.802z"/>
        <path stroke="#AADDDF" stroke-width="5" d="M200.015 223.07c14.193 8.194 41.846-13.132 61.766-47.633 19.919-34.502 24.561-69.113 10.368-77.307-14.192-8.194-41.846 13.132-61.765 47.633-19.919 34.501-24.561 69.113-10.369 77.307z"/>
        <path stroke="#6FC8CA" stroke-width="5" d="M200.015 98.13c-14.192 8.195-9.55 42.806 10.369 77.307 19.919 34.501 47.573 55.827 61.765 47.633 14.193-8.194 9.551-42.805-10.368-77.307-19.92-34.501-47.573-55.827-61.766-47.633z"/>
        <path fill="#1CB1B4" d="M229.571 116.733s-3.569-7.093-8.542-10.491c-3.513-2.401-7.726-2.958-9.896-3.078-1.544.074-3.076.307-4.573.696-1.903.562-3.75 1.301-5.515 2.21 0 0-1.154.672-3.004 1.971s-4.398 3.225-4.398 3.225-2.934.184-3.353-1.195c-.686-2.275-.2-7.43 1.954-11.826 1.315-2.683 3.546-5.334 5.796-7.526 3.228-3.063 7.057-5.423 11.245-6.928 3.217-1.13 6.594-1.735 10.003-1.791l38.506.337c1.068.21 2.056.718 2.849 1.464.485-.81 2.339-1.725 3.031-1.725l14.894.195c.4.017.777.193 1.049.488.271.295.415.685.399 1.086l1.034 22.345c0 .869-.886 1.569-1.685 1.569l-18.176.004c-.728 0-2.916-1.802-3.303-2.781l-.093.396s-7.863-.766-9.364 2.072c-1.501 2.839-4.465 9.282-4.465 9.282l-14.393.001z"/>
        <path fill="#1CB1B4" d="M231.667 88.536h10.289c.505 0 .989.201 1.347.558.357.358.558.842.558 1.348v109.696s-7.41 7.865-7.621 7.865l-7.621-7.865 1.143-109.696c0-.506.201-.99.558-1.348.358-.357.842-.558 1.347-.558z"/>
        <path fill="url(#paint0_linear)" d="M231.74 88.536h10.23c.504.002.987.204 1.342.56.355.358.554.842.552 1.346l-.011 109.655c0 1.052-6.491 7.581-7.537 7.581-1.046 0-7.693-7.199-7.693-8.251l1.223-108.985c-.002-.504.197-.988.552-1.345.356-.357.838-.56 1.342-.56z"/>
        <path fill="url(#paint1_linear)" d="M229.571 116.733s-3.569-7.093-8.542-10.491c-3.513-2.401-7.726-2.958-9.896-3.078-1.544.074-3.076.307-4.573.696-1.903.562-3.75 1.301-5.515 2.21 0 0-1.154.672-3.004 1.971s-4.398 3.225-4.398 3.225-2.934.184-3.353-1.195c-.686-2.275-.2-7.43 1.954-11.826 1.315-2.683 3.546-5.334 5.796-7.526 3.228-3.063 7.057-5.423 11.245-6.928 3.217-1.13 6.594-1.735 10.003-1.791l38.506.337c1.068.21 2.056.718 2.849 1.464.485-.81 2.339-1.725 3.031-1.725l14.894.195c.4.017.777.193 1.049.488.271.295.415.685.399 1.086l1.034 22.345c0 .869-.886 1.569-1.685 1.569l-18.176.004c-.728 0-2.916-1.802-3.303-2.781l-.093.396s-7.863-.766-9.364 2.072c-1.501 2.839-4.465 9.282-4.465 9.282l-14.393.001z"/>
    </g>
    <defs>
        <linearGradient id="paint0_linear" x1="236.244" x2="236.244" y1="88.536" y2="207.678" gradientUnits="userSpaceOnUse">
            <stop stop-color="#1CB1B4"/>
            <stop offset="1" stop-color="#fff" stop-opacity=".102"/>
        </linearGradient>
        <linearGradient id="paint1_linear" x1="235.525" x2="235.233" y1="82" y2="137.27" gradientUnits="userSpaceOnUse">
            <stop stop-color="#1CB1B4"/>
            <stop offset="1" stop-color="#fff" stop-opacity=".239"/>
        </linearGradient>
        <clipPath id="clip0">
            <path fill="#fff" d="M0 8c0-4.418 3.582-8 8-8h456c4.418 0 8 3.582 8 8v348c0 4.418-3.582 8-8 8H8c-4.418 0-8-3.582-8-8V8z"/>
        </clipPath>
        <clipPath id="clip1">
            <path fill="#fff" d="M0 0H474V364H0z"/>
        </clipPath>
    </defs>
</svg>
