<svg xmlns="http://www.w3.org/2000/svg" width="80" height="80" viewBox="0 0 80 80">
    <g id="ic_invoices_added" transform="translate(-128 -304)">
        <path id="Rectangle_1306" fill="none" d="M0 0H80V80H0z" data-name="Rectangle 1306" transform="translate(128 304)"/>
        <path id="ic_invoices" fill="#3164c6" d="M33.3 50.038H3.7A3.729 3.729 0 0 1 0 46.289V3.8A3.729 3.729 0 0 1 3.7.048L26.1 0c1.272 1.272 2.842 2.865 4.36 4.405 2.5 2.535 5.081 5.154 6.418 6.432L37 46.289a3.729 3.729 0 0 1-3.7 3.749zM7.417 41.29a1.25 1.25 0 1 0 0 2.5h12.3a1.25 1.25 0 0 0 0-2.5zm0-6.249a1.25 1.25 0 1 0 0 2.5h22.167a1.25 1.25 0 0 0 0-2.5zm0-6.249a1.25 1.25 0 1 0 0 2.5h22.167a1.25 1.25 0 0 0 0-2.5zm0-6.25a1.25 1.25 0 1 0 0 2.5h22.167a1.25 1.25 0 0 0 0-2.5zm9.867-6.249a1.25 1.25 0 0 0 0 2.5h12.3a1.25 1.25 0 0 0 0-2.5zm-8.25.041v1.078a.56.56 0 0 0 .107.337.447.447 0 0 0 .381.186c.373 0 .562-.176.562-.523v-1.22a4.219 4.219 0 0 0 1.729-.723 1.863 1.863 0 0 0 .786-1.528 2.01 2.01 0 0 0-.7-1.626 2.961 2.961 0 0 0-1.7-.606 1.059 1.059 0 0 0-.107 0v-1.5a4.688 4.688 0 0 1 .654.1 3.246 3.246 0 0 0 .654.093.663.663 0 0 0 .479-.2.638.638 0 0 0 .2-.473c0-.226-.271-.43-.806-.606a4.7 4.7 0 0 0-1.182-.244V8.24c0-.379-.173-.571-.513-.571-.356 0-.536.192-.536.571v.806a3.83 3.83 0 0 0-1.542.893 2.045 2.045 0 0 0-.7 1.484 1.231 1.231 0 0 0 .787 1.109 3.7 3.7 0 0 0 1.455.361v2.154a2.629 2.629 0 0 1-.322.024 2.9 2.9 0 0 1-.62-.144 2.775 2.775 0 0 0-.68-.144c-.512 0-.771.235-.771.7 0 .242.166.444.493.6a3.611 3.611 0 0 0 1.528.264c.116 0 .237 0 .371-.01zM24.462 4.863v6.89h7.326zM10.083 14.8v-1.863c.71.074 1.069.392 1.069.942 0 .366-.359.677-1.068.923zm-1.05-3.142c-.531-.068-.8-.233-.8-.489 0-.3.269-.551.8-.752v1.239z" transform="translate(150 319)"/>
    </g>
</svg>
