<svg xmlns="http://www.w3.org/2000/svg" width="56" height="56" viewBox="0 0 56 56">
    <g id="ic_my_invoices" transform="translate(-16 -200)">
        <path id="Rectangle_954" fill="none" d="M0 0H56V56H0z" data-name="Rectangle 954" transform="translate(16 200)"/>
        <path id="ic_invoices" fill="#3164c6" d="M27 40.038H3a3 3 0 0 1-3-3v-34a3 3 0 0 1 3-3L21.164 0c1.028 1.015 2.3 2.288 3.529 3.518 2.03 2.032 4.126 4.13 5.21 5.153L30 37.038a3 3 0 0 1-3 3zm-21-7a1 1 0 1 0 0 2h10a1 1 0 1 0 0-2zm0-5a1 1 0 0 0 0 2h18a1 1 0 0 0 0-2zm0-5a1 1 0 1 0 0 2h18a1 1 0 1 0 0-2zm0-5a1 1 0 0 0 0 2h18a1 1 0 0 0 0-2zM7.58 14.3v.97a.513.513 0 0 0 .1.3.4.4 0 0 0 .342.167c.336 0 .506-.158.506-.471v-1.1a3.778 3.778 0 0 0 1.556-.65 1.677 1.677 0 0 0 .707-1.376 1.811 1.811 0 0 0-.633-1.463 2.662 2.662 0 0 0-1.535-.545.866.866 0 0 0-.1 0v-1.35a4.23 4.23 0 0 1 .589.093 2.918 2.918 0 0 0 .589.083.6.6 0 0 0 .43-.175.574.574 0 0 0 .18-.427c0-.2-.244-.387-.724-.544a4.227 4.227 0 0 0-1.064-.22v-.581c0-.341-.155-.514-.462-.514s-.483.173-.483.514v.725a3.455 3.455 0 0 0-1.384.8 1.838 1.838 0 0 0-.633 1.336 1.106 1.106 0 0 0 .707 1 3.334 3.334 0 0 0 1.312.328v1.938a2.4 2.4 0 0 1-.29.022 2.641 2.641 0 0 1-.558-.13 2.506 2.506 0 0 0-.611-.13c-.46 0-.694.212-.694.629 0 .219.149.4.444.54a3.24 3.24 0 0 0 1.375.238c.115 0 .223 0 .333-.009zM14 13.038a1 1 0 0 0 0 2h10a1 1 0 1 0 0-2zm5.834-9.148V9.4h5.94zM8.525 12.918v-1.679c.639.066.962.352.962.848 0 .329-.323.608-.961.83zm-.945-2.83c-.478-.061-.72-.209-.72-.439 0-.268.243-.5.721-.677v1.115z" transform="translate(29 208)"/>
    </g>
</svg>
